<svg width="1440" height="3346" viewBox="0 0 1440 3346" fill="none" xmlns="http://www.w3.org/2000/svg">
<circle cx="1125" cy="504" r="52" fill="#FFB500" fill-opacity="0.25"/>
<circle cx="772" cy="375" r="52" fill="#E12B2B" fill-opacity="0.25"/>
<circle cx="962.5" cy="468.5" r="110.5" fill="#E12B2B" fill-opacity="0.15"/>
<path d="M1093 788.043C1093 855.737 1033.26 918.452 960.711 889.948C915.904 848.616 827 841.484 827 773.79C827 706.096 881.77 684 949.332 684C1016.89 684 1093 720.349 1093 788.043Z" fill="#FFB500" fill-opacity="0.15"/>
<circle cx="1375.5" cy="198.5" r="198.5" fill="#FFB500" fill-opacity="0.1"/>
<path d="M699.122 261.623C815.018 364.899 899.05 698.38 796.01 814.012C692.97 929.643 493.566 1005.34 377.67 902.06C261.774 798.785 286.875 567.77 389.915 452.138C492.955 336.507 583.226 158.348 699.122 261.623Z" fill="#FFB500" fill-opacity="0.1"/>
<path d="M1770 1318.8C1770 1503.17 1592.52 1545 1408.33 1545C1224.14 1545 1103 1503.17 1103 1318.8C1103 1134.42 1353.51 657 1537.7 657C1721.88 657 1770 1134.42 1770 1318.8Z" fill="#E12B2B" fill-opacity="0.1"/>
<path d="M318.977 2241.82C214.959 2461.97 -15.9137 2413.98 -231.016 2312.35C-446.117 2210.72 -563.994 2093.93 -459.975 1873.78C-355.957 1653.62 205.943 1221.79 421.045 1323.42C636.147 1425.06 422.995 2021.67 318.977 2241.82Z" fill="#E12B2B" fill-opacity="0.1"/>
<circle cx="724.918" cy="2214.32" r="79.5" transform="rotate(154.031 724.918 2214.32)" fill="#FFB500" fill-opacity="0.25"/>
<circle cx="1296.66" cy="2154.97" r="79.5" transform="rotate(154.031 1296.66 2154.97)" fill="#E12B2B" fill-opacity="0.25"/>
<circle cx="971.754" cy="2153.61" r="169" transform="rotate(154.031 971.754 2153.61)" fill="#E12B2B" fill-opacity="0.15"/>
<path d="M578.155 1802.24C532.787 1709.09 572.938 1582.77 691.834 1573.39C781.171 1600.24 908.245 1550.49 953.613 1643.63C998.98 1736.78 938.449 1803.88 845.512 1849.14C752.574 1894.41 623.523 1895.39 578.155 1802.24Z" fill="#FFB500" fill-opacity="0.1"/>
<ellipse cx="1026.01" cy="2665.8" rx="75" ry="75.5" transform="rotate(-25.5547 1026.01 2665.8)" fill="#FFB500" fill-opacity="0.25"/>
<circle cx="484.544" cy="2717.98" r="75" transform="rotate(-25.5547 484.544 2717.98)" fill="#E12B2B" fill-opacity="0.25"/>
<circle cx="791.779" cy="2720.71" r="160" transform="rotate(-25.5547 791.779 2720.71)" fill="#E12B2B" fill-opacity="0.15"/>
<path d="M-104.978 2880.14C-150.346 2787 -110.195 2660.67 8.70097 2651.29C98.0378 2678.14 225.112 2628.39 270.48 2721.53C315.847 2814.68 255.316 2881.78 162.378 2927.05C69.4414 2972.31 -59.6103 2973.29 -104.978 2880.14Z" fill="#FFB500" fill-opacity="0.1"/>
<circle cx="664" cy="3230" r="84" fill="#FFB500" fill-opacity="0.25"/>
<circle cx="62" cy="3188" r="84" fill="#E12B2B" fill-opacity="0.25"/>
<path d="M1546.72 3306.85C1490.88 3425.04 1366.93 3399.28 1251.44 3344.72C1135.96 3290.15 1072.67 3227.45 1128.52 3109.25C1184.36 2991.06 1486.04 2759.21 1601.52 2813.78C1717.01 2868.34 1602.57 3188.65 1546.72 3306.85Z" fill="#E12B2B" fill-opacity="0.1"/>
</svg>
