<svg width="4312" height="768" viewBox="0 0 4312 768" fill="none" xmlns="http://www.w3.org/2000/svg">
<g clip-path="url(#clip0)">
<path d="M172.14 50.512C206.62 70.4544 230.77 69.536 245.31 82H1440V0H110C116.35 8.528 137.66 30.5696 172.14 50.512Z" fill="#F77757"/>
<path d="M1173.14 791.097C1374.8 863.907 1450.41 867.663 1463 860.44V50L243 80.5C272.5 97 264.5 100.316 334.5 127.5C420.59 160.933 373.53 280.316 587.21 318.702C800.893 357.088 757.537 484.009 918.573 558.305C1079.61 632.6 921.051 700.085 1173.14 791.097Z" fill="#F77757"/>
<path d="M1186.6 472.414C1307.88 430.237 1412.07 309.231 1449 254L1441 768H-1L105.5 731.5C172 713.5 156 746 242 724C330.5 682 384 664.5 437.5 672.5C566.5 720.5 695.302 593.5 777.135 570.826C889.642 522.5 1065.32 514.59 1186.6 472.414Z" fill="#FFFCFA"/>
<g filter="url(#filter0_d)">
<path d="M1226 725.5C1315.5 757.813 1433.5 738 1439.5 725.5L1463 220.5L587.21 318.702C800.893 357.088 738.964 506.705 900 581C1061.04 655.295 973.916 634.488 1226 725.5Z" fill="url(#paint0_linear)"/>
</g>
<path d="M0 496C-9.77303 467.942 -17.7864 429.722 -52.4444 428.444C-100.997 426.654 -150.953 431.077 -191.333 461.222C-241.962 499.018 -258.047 553.603 -263.111 612.889C-265.186 637.172 -268.484 660.25 -273.556 684C-276.258 696.655 -278 709.275 -278 722.222C-278 727.013 -278 751.585 -278 746" stroke="black" stroke-linecap="round" stroke-linejoin="round"/>
</g>
<g clip-path="url(#clip1)">
<path d="M2698.86 50.512C2664.38 70.4544 2640.23 69.536 2625.69 82H1431V0H2761C2754.65 8.528 2733.34 30.5696 2698.86 50.512Z" fill="#F77757"/>
<path d="M1697.86 791.097C1496.2 863.907 1420.59 867.663 1408 860.44V50L2628 80.5C2598.5 97 2606.5 100.316 2536.5 127.5C2450.41 160.933 2497.47 280.316 2283.79 318.702C2070.11 357.088 2113.46 484.009 1952.43 558.305C1791.39 632.6 1949.95 700.085 1697.86 791.097Z" fill="#F77757"/>
<path d="M1684.4 472.414C1563.12 430.237 1458.93 309.231 1422 254L1430 768H2872V494.004C2847.99 519.611 2791.44 596 2693.77 596C2582.91 596 2431.31 702.878 2289.28 667.229C2175.66 638.71 2175.7 593.5 2093.86 570.826C1981.36 522.5 1805.68 514.59 1684.4 472.414Z" fill="#FFFCFA"/>
<g filter="url(#filter1_d)">
<path d="M1571.5 666C1482 698.313 1423 745 1423 728.5L1406 220.5L2281.79 318.702C2068.11 357.088 2130.04 506.705 1969 581C1807.96 655.295 1823.58 574.988 1571.5 666Z" fill="url(#paint1_linear)"/>
</g>
</g>
<path d="M3947 684C4068.28 641.823 4073 710 4183 736L4312 768H2870V496C2885 475.996 2937.83 427.5 3035.5 427.5C3146.36 427.5 3310.69 702.878 3452.72 667.229C3566.34 638.71 3566.3 593.5 3648.14 570.826C3760.64 522.5 3825.72 726.176 3947 684Z" fill="#FFFCFA"/>
<defs>
<filter id="filter0_d" x="557.21" y="210.5" width="935.79" height="582.56" filterUnits="userSpaceOnUse" color-interpolation-filters="sRGB">
<feFlood flood-opacity="0" result="BackgroundImageFix"/>
<feColorMatrix in="SourceAlpha" type="matrix" values="0 0 0 0 0 0 0 0 0 0 0 0 0 0 0 0 0 0 127 0"/>
<feOffset dy="20"/>
<feGaussianBlur stdDeviation="15"/>
<feColorMatrix type="matrix" values="0 0 0 0 0.968627 0 0 0 0 0.466667 0 0 0 0 0.341177 0 0 0 0.25 0"/>
<feBlend mode="normal" in2="BackgroundImageFix" result="effect1_dropShadow"/>
<feBlend mode="normal" in="SourceGraphic" in2="effect1_dropShadow" result="shape"/>
</filter>
<filter id="filter1_d" x="1376" y="210.5" width="935.79" height="571.429" filterUnits="userSpaceOnUse" color-interpolation-filters="sRGB">
<feFlood flood-opacity="0" result="BackgroundImageFix"/>
<feColorMatrix in="SourceAlpha" type="matrix" values="0 0 0 0 0 0 0 0 0 0 0 0 0 0 0 0 0 0 127 0"/>
<feOffset dy="20"/>
<feGaussianBlur stdDeviation="15"/>
<feColorMatrix type="matrix" values="0 0 0 0 0.968627 0 0 0 0 0.466667 0 0 0 0 0.341177 0 0 0 0.25 0"/>
<feBlend mode="normal" in2="BackgroundImageFix" result="effect1_dropShadow"/>
<feBlend mode="normal" in="SourceGraphic" in2="effect1_dropShadow" result="shape"/>
</filter>
<linearGradient id="paint0_linear" x1="1216.5" y1="302" x2="1428.5" y2="726" gradientUnits="userSpaceOnUse">
<stop offset="0.150431" stop-color="#F77757"/>
<stop offset="1" stop-color="#FFB303"/>
</linearGradient>
<linearGradient id="paint1_linear" x1="1652.5" y1="302" x2="1440.5" y2="726" gradientUnits="userSpaceOnUse">
<stop offset="0.150431" stop-color="#F77757"/>
<stop offset="1" stop-color="#FFB303"/>
</linearGradient>
<clipPath id="clip0">
<rect width="1440" height="768" fill="white" transform="matrix(-1 0 0 1 1440 0)"/>
</clipPath>
<clipPath id="clip1">
<rect width="1440" height="768" fill="white" transform="translate(1431)"/>
</clipPath>
</defs>
</svg>
